<svg xmlns="http://www.w3.org/2000/svg" width="352.343" height="86.766" viewBox="0 0 352.343 86.766">
  <g id="Group_8487" data-name="Group 8487" transform="translate(-126.329 -388.156)">
    <path id="Union_10" data-name="Union 10" d="M222.283,86.766V25.66a8.117,8.117,0,0,0-.691-3.342A8.883,8.883,0,0,0,219.73,19.6,8.616,8.616,0,0,0,205.7,22.318a8.429,8.429,0,0,0-.661,3.342V86.766H187.8V25.66a8.45,8.45,0,0,0-2.493-6.057,8.576,8.576,0,0,0-14.687,6.057V86.766h-17.24V25.66a25.048,25.048,0,0,1,2.012-10A25.953,25.953,0,0,1,188.465,1.7a25.127,25.127,0,0,1,7.988,4.923A25.362,25.362,0,0,1,213.633,0a25.5,25.5,0,0,1,10.061,2A25.62,25.62,0,0,1,237.45,15.665a25.048,25.048,0,0,1,2.012,10V86.766Zm-153.384,0V25.66a8.117,8.117,0,0,0-.691-3.342A8.883,8.883,0,0,0,66.345,19.6,8.616,8.616,0,0,0,52.32,22.318a8.43,8.43,0,0,0-.661,3.342V86.766H34.419V25.66A8.445,8.445,0,0,0,31.927,19.6,8.576,8.576,0,0,0,17.24,25.66V86.766H0V25.66a25.048,25.048,0,0,1,2.012-10A25.953,25.953,0,0,1,35.08,1.7a25.127,25.127,0,0,1,7.988,4.923A25.362,25.362,0,0,1,60.249,0,25.5,25.5,0,0,1,70.31,2,25.62,25.62,0,0,1,84.065,15.665a25.048,25.048,0,0,1,2.012,10V86.766Zm274.063-.132c-2.678,0-3.938,0-4.531-.664-.526-.59-.526-1.705-.526-3.811V67.525c0-2.751,0-3.976-.812-4.522-.691-.464-1.97-.435-4.34-.435h-4.594c-2.47,0-3.64,0-4.194.722-.5.65-.5,1.885-.5,4.234V82.159c0,2.4,0,3.508-.69,4.026-.6.449-1.717.449-3.806.449H314.2c-2.743,0-4.034,0-4.64-.691-.538-.613-.538-1.769-.538-3.954V21.659a21.658,21.658,0,1,1,43.317,0v60.16c0,2.391,0,3.595-.628,4.2s-1.918.615-4.5.615Zm-19.5-64.976V43.192c0,2.371,0,3.6.531,4.244.593.715,1.848.694,4.5.694h4.595c2.365,0,3.568,0,4.179-.571.63-.587.633-1.778.633-4.2v-21.7a7.219,7.219,0,1,0-14.439,0ZM256.447,86.634c-2.767,0-4.055,0-4.655-.736-.522-.641-.522-1.838-.522-4.079v-77c0-2.24,0-3.438.522-4.079C252.392,0,253.679,0,256.447,0h16.482a21.658,21.658,0,0,1,21.658,21.659v7.219a21.663,21.663,0,0,1-2.308,9.683,7.981,7.981,0,0,0-.949,3.132,5.8,5.8,0,0,0,1.19,2.9,21.66,21.66,0,0,1,4.473,13.161v7.22a21.659,21.659,0,0,1-21.659,21.659Zm9.883-35.476c-.621.616-.621,1.843-.621,4.286V67.185c0,2.32,0,3.566.467,4.234.54.775,1.707.775,4.226.775h4.933a7.22,7.22,0,0,0,7.22-7.219v-7.22a7.22,7.22,0,0,0-7.22-7.22h-4.593C268.214,50.536,266.956,50.536,266.33,51.158Zm-.073-36.106c-.548.587-.548,1.733-.548,3.976V31.28c0,2.281,0,3.483.518,4.115.574.7,1.786.7,4.346.7h2.356a7.22,7.22,0,0,0,7.22-7.22V21.659a7.22,7.22,0,0,0-7.22-7.22H270.4C268,14.439,266.83,14.439,266.257,15.052ZM131.985,86.634c-2.677,0-3.938,0-4.531-.664-.527-.59-.527-1.7-.527-3.811V67.525c0-2.75,0-3.976-.811-4.521-.691-.464-1.971-.436-4.341-.436h-4.595c-2.469,0-3.639,0-4.193.722-.5.65-.5,1.886-.5,4.234V82.159c0,2.4,0,3.508-.69,4.026-.6.449-1.717.449-3.806.449h-4.765c-2.743,0-4.033,0-4.64-.691-.538-.613-.538-1.769-.538-3.954V21.659a21.658,21.658,0,1,1,43.316,0v60.16c0,2.391,0,3.595-.627,4.2s-1.918.615-4.5.615Zm-19.5-64.976V43.192c0,2.371,0,3.6.532,4.244.593.715,1.848.694,4.5.694h4.594c2.365,0,3.568,0,4.18-.57.629-.588.632-1.779.632-4.2v-21.7a7.219,7.219,0,1,0-14.439,0Z" transform="translate(126.329 388.157)" fill="#fff"/>
    <g id="Group_1800" data-name="Group 1800" transform="matrix(0.978, 0.208, -0.208, 0.978, 171.075, 388.105)">
      <path id="Path_1624" data-name="Path 1624" d="M49.784,37.283c-2.346-4.052-4.326-5.921-10.329-12.065s-7.449-13.384-4.2-19.741S45.967.047,45.967.047l6.646,18.261s10.824,6.828,12.676,18.819S58.63,58.484,41.47,57.719s-26.7-21.521-26.014-23.1,4.5-2.307,4.5-2.307-7-7.49-13.127-8.63S0,23.593,0,23.593a6.42,6.42,0,0,1,4.157-2.7c2.832-.5,7.172.691,7.172.691a13.041,13.041,0,0,1-.921-3,6.016,6.016,0,0,1,.186-2.467l8.68,10.02,4.93,5.3S32.4,29.409,39.851,33.29s5.4,9.6,6.589,9.679S52.13,41.335,49.784,37.283Z" transform="translate(64.901 66.322) rotate(-172)" fill="#1b222c" stroke="#fff" stroke-linecap="round" stroke-linejoin="round" stroke-width="1"/>
      <path id="Path_1625" data-name="Path 1625" d="M4.262,2.279a6.127,6.127,0,0,1-2.836-.455A3.142,3.142,0,0,1,0,.112,4.445,4.445,0,0,1,2.58.3,4.485,4.485,0,0,1,4.262,2.279Z" transform="matrix(-0.999, 0.035, -0.035, -0.999, 36.754, 21.785)" fill="#fff" stroke="#fff" stroke-width="1"/>
    </g>
  </g>
</svg>
